<!-- Generator: Adobe Illustrator 27.5.0, SVG Export Plug-In . SVG Version: 6.00 Build 0)  -->
<svg version="1.1" xmlns="http://www.w3.org/2000/svg" xmlns:xlink="http://www.w3.org/1999/xlink" x="0px" y="0px"
	 viewBox="0 0 750 500" style="enable-background:new 0 0 750 500;" xml:space="preserve">
<g id="BACKGROUND">
	<rect style="fill:#6CAEE7;" width="450" height="250"/>
</g>
<g id="OBJECTS">
	<g>
		<defs>
			<rect id="SVGID_1_" width="750" height="500"/>
		</defs>
		<clipPath id="SVGID_00000181087824660043703290000017422756554598135971_">
			<use xlink:href="#SVGID_1_"  style="overflow:visible;"/>
		</clipPath>
		<g style="clip-path:url(#SVGID_00000181087824660043703290000017422756554598135971_);">
			
				<ellipse transform="matrix(0.7071 -0.7071 0.7071 0.7071 94.8951 531.6988)" style="fill:#4893D4;" cx="689.265" cy="151.301" rx="119.985" ry="119.985"/>
			
				<ellipse transform="matrix(0.7071 -0.7071 0.7071 0.7071 18.0261 124.9017)" style="fill:#4893D4;" cx="159.783" cy="40.691" rx="82.908" ry="82.908"/>
			
				<ellipse transform="matrix(0.7071 -0.7071 0.7071 0.7071 -103.3005 515.3358)" style="fill:#4893D4;" cx="570.415" cy="382.363" rx="82.908" ry="82.908"/>
			
				<ellipse transform="matrix(0.7071 -0.7071 0.7071 0.7071 -241.2956 231.6166)" style="fill:#4893D4;" cx="158.938" cy="407.078" rx="124.189" ry="124.189"/>
			<circle style="fill:#4893D4;" cx="499.183" cy="124.014" r="22.854"/>
			<circle style="fill:#4893D4;" cx="56.991" cy="263.504" r="22.854"/>
			<circle style="fill:#4893D4;" cx="691.816" cy="374.97" r="22.853"/>
		</g>
	</g>
	<g>
		<g>
			<g>
				<g>
					<path style="fill:#EFC22E;" d="M575.505,244.304v-21.52c0-2.514,2.038-4.553,4.552-4.553l0,0c2.514,0,4.552,2.038,4.552,4.553
						v21.52c0,2.514-2.038,4.553-4.552,4.553l0,0C577.543,248.857,575.505,246.818,575.505,244.304z"/>
					<g>
						
							<rect x="566.463" y="227.99" transform="matrix(6.123234e-17 -1 1 6.123234e-17 338.473 798.4656)" style="fill:#EFC22E;" width="4.013" height="4.013"/>
						
							<rect x="566.463" y="221.605" transform="matrix(6.123234e-17 -1 1 6.123234e-17 344.8579 792.0806)" style="fill:#EFC22E;" width="4.013" height="4.013"/>
						
							<rect x="560.508" y="221.605" transform="matrix(6.123234e-17 -1 1 6.123234e-17 338.9027 786.1254)" style="fill:#EFC22E;" width="4.013" height="4.013"/>
					</g>
				</g>
				<path style="fill:none;stroke:#FFFFFF;stroke-miterlimit:10;" d="M452.884,374.418h109.151c10.595,0,19.185-8.589,19.185-19.185
					V250.649"/>
			</g>
			<g>
				<g>
					<rect x="551.867" y="99.194" style="fill:#FFFFFF;" width="132.28" height="94.339"/>
					
						<rect x="546.215" y="94.019" style="fill:none;stroke:#FFFFFF;stroke-width:0.5;stroke-miterlimit:10;" width="143.583" height="104.689"/>
					
						<line style="fill:none;stroke:#29245F;stroke-width:0.75;stroke-miterlimit:10;" x1="551.867" y1="110.25" x2="684.147" y2="110.25"/>
					<path style="fill:#DA4946;" d="M565.133,104.845c0-1.628-1.32-2.948-2.948-2.948s-2.948,1.32-2.948,2.948
						c0,1.628,1.32,2.948,2.948,2.948S565.133,106.473,565.133,104.845z"/>
					<path style="fill:#EFC22E;" d="M575.943,104.845c0-1.628-1.32-2.948-2.948-2.948c-1.628,0-2.948,1.32-2.948,2.948
						c0,1.628,1.32,2.948,2.948,2.948C574.623,107.793,575.943,106.473,575.943,104.845z"/>
					<path style="fill:#7DC58A;" d="M586.753,104.845c0-1.628-1.32-2.948-2.948-2.948c-1.628,0-2.948,1.32-2.948,2.948
						c0,1.628,1.32,2.948,2.948,2.948C585.433,107.793,586.753,106.473,586.753,104.845z"/>
				</g>
				<g style="opacity:0.88;">
					<g>
						<path style="fill:#DA4946;" d="M603.54,128.36c-12.238,0-22.18,9.805-22.414,21.988c10.994,0.135,22.414,0.438,22.414,0.438
							V128.36z"/>
						<path style="fill:#7DC58A;" d="M603.54,173.211c12.385,0,22.425-10.04,22.425-22.426H603.54V173.211z"/>
						<path style="fill:#7DC58A;" d="M581.126,150.348c-0.003,0.146-0.011,0.291-0.011,0.438c0,12.385,10.04,22.426,22.425,22.426
							v-22.426C603.54,150.786,592.12,150.482,581.126,150.348z"/>
						<path style="fill:#EFC22E;" d="M603.54,128.36v22.425h22.425C625.965,138.4,615.925,128.36,603.54,128.36z"/>
					</g>
				</g>
				<g>
					<rect x="650.628" y="130.578" style="fill:#7DC58A;" width="3.695" height="1.782"/>
					<rect x="650.628" y="135.328" style="fill:#7DC58A;" width="21.154" height="1.782"/>
					
						<rect x="645.55" y="124.007" style="fill:none;stroke:#29245F;stroke-width:0.75;stroke-miterlimit:10;" width="32.946" height="22.274"/>
				</g>
				<g>
					<rect x="658.653" y="169.559" style="fill:#FFB264;" width="3.695" height="1.782"/>
					<path style="fill:#7DC58A;" d="M654.558,170.685c0-1.719-1.393-3.112-3.112-3.112c-1.719,0-3.112,1.393-3.112,3.112
						s1.393,3.112,3.112,3.112C653.165,173.797,654.558,172.404,654.558,170.685z"/>
				</g>
			</g>
			<g>
				
					<rect x="617.38" y="213.145" transform="matrix(-1.836970e-16 1 -1 -1.836970e-16 902.9434 -394.0001)" style="fill:none;stroke:#FFFFFF;stroke-width:0.7599;stroke-miterlimit:10;" width="62.185" height="82.654"/>
				<rect x="610.945" y="227.179" style="fill:#EFC22E;" width="75.054" height="54.585"/>
				<g>
					<rect x="621.559" y="245.374" style="fill:#FFFFFF;" width="37.906" height="3.791"/>
					<rect x="621.559" y="255.988" style="fill:#FFFFFF;" width="56.859" height="3.791"/>
				</g>
			</g>
		</g>
		<g>
			<g>
				<g>
					<g>
						
							<ellipse transform="matrix(0.987 -0.1606 0.1606 0.987 -49.4276 18.3345)" style="fill:#FFFFFF;" cx="88.723" cy="314.98" rx="7.917" ry="7.917"/>
						
							<ellipse transform="matrix(0.9729 -0.2311 0.2311 0.9729 -70.3877 29.0291)" style="fill:none;stroke:#FFFFFF;stroke-miterlimit:10;" cx="88.723" cy="314.98" rx="13.536" ry="13.536"/>
					</g>
				</g>
			</g>
			<g>
				<g>
					<g>
						<g>
							<path style="fill:#EFC22E;" d="M232.407,98.255h21.521c2.514,0,4.552-2.038,4.552-4.552l0,0c0-2.514-2.038-4.553-4.552-4.553
								h-21.521c-2.514,0-4.552,2.038-4.552,4.553l0,0C227.855,96.217,229.893,98.255,232.407,98.255z"/>
							<g>
								<rect x="244.709" y="103.285" style="fill:#EFC22E;" width="4.013" height="4.013"/>
								<rect x="251.093" y="103.285" style="fill:#EFC22E;" width="4.013" height="4.013"/>
								<rect x="251.093" y="109.24" style="fill:#EFC22E;" width="4.013" height="4.013"/>
							</g>
						</g>
					</g>
				</g>
				<g>
					
						<rect x="116.493" y="74.303" transform="matrix(-1.836970e-16 1 -1 -1.836970e-16 263.2145 -31.9556)" style="fill:none;stroke:#FFFFFF;stroke-width:0.7599;stroke-miterlimit:10;" width="62.185" height="82.654"/>
					<rect x="110.058" y="88.337" style="fill:#EFC22E;" width="75.054" height="54.585"/>
					<g>
						<rect x="120.672" y="106.532" style="fill:#FFFFFF;" width="37.906" height="3.791"/>
						<rect x="120.672" y="117.146" style="fill:#FFFFFF;" width="56.859" height="3.791"/>
					</g>
				</g>
			</g>
			<g>
				<g>
					<path style="fill:#EFC22E;" d="M133.183,239.434c3.479-22.532-11.412-43.706-33.258-47.294
						c-21.847-3.587-42.377,11.77-45.855,34.302c-3.478,22.532,11.412,43.706,33.259,47.294
						C109.175,277.323,129.705,261.966,133.183,239.434z"/>
					<path style="fill:#FFFFFF;" d="M93.767,232.031l33.208-26.449c-6.009-8.83-15.344-15.238-26.49-17.068L93.767,232.031z"/>
					<path style="fill:#DA4946;" d="M99.925,192.14c-21.847-3.587-42.377,11.77-45.855,34.302l39.697,5.589L99.925,192.14z"/>
				</g>
				<polyline style="fill:none;stroke:#FFFFFF;stroke-miterlimit:10;" points="108.959,203.757 124.705,187.517 177.784,187.517 
									"/>
				<path style="fill:#7DC58A;" d="M111.671,203.063c0-1.61-1.265-2.915-2.826-2.915c-1.561,0-2.826,1.305-2.826,2.915
					c0,1.61,1.265,2.915,2.826,2.915C110.406,205.978,111.671,204.673,111.671,203.063z"/>
				<polyline style="fill:none;stroke:#FFFFFF;stroke-miterlimit:10;" points="123.494,252.199 139.24,268.439 192.318,268.439 				
					"/>
				<path style="fill:#7DC58A;" d="M126.206,252.893c0,1.61-1.265,2.915-2.826,2.915c-1.561,0-2.826-1.305-2.826-2.915
					s1.265-2.915,2.826-2.915C124.941,249.978,126.206,251.283,126.206,252.893z"/>
				<rect x="125.108" y="177.94" style="fill:#FFFFFF;" width="39.755" height="2.498"/>
				<rect x="151.352" y="260.389" style="fill:#FFFFFF;" width="39.755" height="2.498"/>
			</g>
			<g>
				<rect x="289.787" y="69.668" style="fill:#FFFFFF;" width="18.49" height="2.864"/>
				<rect x="289.787" y="77.301" style="fill:#FFFFFF;" width="42.122" height="2.864"/>
				<rect x="282.915" y="59.106" style="fill:none;stroke:#FFFFFF;stroke-miterlimit:10;" width="58.084" height="35.799"/>
			</g>
			<g>
				<rect x="607.597" y="408.508" style="fill:#FFFFFF;" width="18.49" height="2.864"/>
				<rect x="607.597" y="416.142" style="fill:#FFFFFF;" width="42.122" height="2.864"/>
				<rect x="600.725" y="397.947" style="fill:none;stroke:#FFFFFF;stroke-miterlimit:10;" width="58.084" height="35.799"/>
			</g>
		</g>
	</g>
	<path style="fill:none;stroke:#FFFFFF;stroke-miterlimit:10;" d="M225.137,362.022v26.036l0,0
		c0,15.135-12.269,27.405-27.405,27.405h-81.605c-15.135,0-27.405-12.269-27.405-27.405V253.471"/>
	<g>
		<g>
			<g>
				<g>
					<path style="fill:#EFC22E;" d="M529.301,351.425c0,6.728-4.873,12.232-10.829,12.232H231.528
						c-5.956,0-10.829-5.504-10.829-12.232v-203.86c0-6.728,4.873-12.232,10.829-12.232h286.943c5.956,0,10.829,5.504,10.829,12.232
						V351.425z"/>
					<rect x="232.625" y="148.919" style="fill:#140D0D;" width="284.75" height="201.152"/>
				</g>
				<g>
					<path style="fill:#FFFFFF;" d="M190.814,335.465v14.601c0,8.031,5.816,14.601,12.926,14.601h342.52
						c7.109,0,12.926-6.57,12.926-14.601v-14.601H190.814z"/>
					<path style="fill:#EFC22E;" d="M323.264,335.465v5.483c0,3.018,2.185,5.484,4.854,5.484h93.764
						c2.671,0,4.855-2.467,4.855-5.484v-5.483H323.264z"/>
				</g>
			</g>
			<g>
				<g>
					<polygon style="fill:#F7E4BC;" points="491.401,223.839 412.554,223.839 412.554,223.839 412.554,169.579 491.401,169.579 
						491.401,223.839 					"/>
					<polygon style="fill:none;stroke:#FFFFFF;stroke-width:0.5;stroke-miterlimit:10;" points="495.528,228.218 408.427,228.218 
						408.427,228.218 408.427,165.201 495.528,165.201 495.528,228.218 					"/>
					<g>
						<rect x="425.767" y="192.828" style="fill:#FFFFFF;" width="18.104" height="2.361"/>
						<rect x="425.767" y="186.533" style="fill:#FFFFFF;" width="41.242" height="2.361"/>
					</g>
				</g>
				<g>
					<g>
						<rect x="282.822" y="255.706" style="fill:#FFFFFF;" width="87.984" height="58.352"/>
						
							<rect x="279.262" y="252.51" style="fill:none;stroke:#FFFFFF;stroke-width:0.5;stroke-miterlimit:10;" width="95.106" height="64.744"/>
						
							<line style="fill:none;stroke:#29245F;stroke-width:0.75;stroke-miterlimit:10;" x1="282.822" y1="262.544" x2="370.806" y2="262.544"/>
						<path style="fill:#DA4946;" d="M291.028,259.201c0-1.007-0.816-1.824-1.824-1.824c-1.007,0-1.823,0.816-1.823,1.824
							c0,1.007,0.816,1.824,1.823,1.824C290.212,261.025,291.028,260.208,291.028,259.201z"/>
						<path style="fill:#EFC22E;" d="M297.714,259.201c0-1.007-0.816-1.824-1.823-1.824c-1.007,0-1.824,0.816-1.824,1.824
							c0,1.007,0.816,1.824,1.824,1.824C296.898,261.025,297.714,260.208,297.714,259.201z"/>
						<path style="fill:#7DC58A;" d="M304.401,259.201c0-1.007-0.816-1.824-1.823-1.824c-1.007,0-1.824,0.816-1.824,1.824
							c0,1.007,0.816,1.824,1.824,1.824C303.584,261.025,304.401,260.208,304.401,259.201z"/>
					</g>
					<g style="opacity:0.88;">
						<path style="fill:#7DC58A;" d="M304.915,287.425c0.103-5.364,4.48-9.681,9.869-9.681v-8.817
							c-10.323,0-18.691,8.368-18.691,18.691C296.094,287.379,300.424,287.37,304.915,287.425z"/>
						<path style="fill:#7DC58A;" d="M324.658,287.618c0,5.453-4.421,9.874-9.874,9.874v8.817c10.323,0,18.691-8.368,18.691-18.691
							H324.658z"/>
						<path style="fill:#6CAEE7;" d="M304.91,287.618c0-0.065,0.004-0.128,0.005-0.193c-4.492-0.055-8.822-0.046-8.822,0.193
							c0,10.323,8.368,18.691,18.691,18.691v-8.817C309.331,297.492,304.91,293.071,304.91,287.618z"/>
						<path style="fill:#6CAEE7;" d="M324.658,287.618h8.817c0-10.323-8.368-18.691-18.691-18.691v8.817
							C320.238,277.744,324.658,282.164,324.658,287.618z"/>
						<g>
							<path style="fill:#6CAEE7;" d="M314.784,281.828c-3.159,0-5.726,2.531-5.786,5.676c2.838,0.035,5.786,0.113,5.786,0.113
								V281.828z"/>
							<path style="fill:#6CAEE7;" d="M314.784,293.407c3.197,0,5.789-2.592,5.789-5.789h-5.789V293.407z"/>
							<path style="fill:#6CAEE7;" d="M308.998,287.505c-0.001,0.038-0.003,0.075-0.003,0.113c0,3.197,2.592,5.789,5.789,5.789
								v-5.789C314.784,287.618,311.836,287.539,308.998,287.505z"/>
							<path style="fill:#7DC58A;" d="M314.784,281.828v5.789h5.789C320.574,284.42,317.982,281.828,314.784,281.828z"/>
						</g>
					</g>
					<g>
						<rect x="343.91" y="275.119" style="fill:#DA4946;" width="8.449" height="1.102"/>
						<rect x="343.91" y="278.056" style="fill:#DA4946;" width="19.248" height="1.102"/>
						
							<rect x="340.769" y="271.054" style="fill:none;stroke:#29245F;stroke-width:0.75;stroke-miterlimit:10;" width="26.542" height="13.778"/>
					</g>
					<g>
						<rect x="348.874" y="299.229" style="fill:#DA4946;" width="8.449" height="1.102"/>
						<circle style="fill:#EFC22E;" cx="344.416" cy="299.926" r="1.925"/>
					</g>
				</g>
				<g>
					<rect x="259.123" y="161.771" style="fill:#FFFFFF;" width="92.764" height="61.522"/>
					<path style="fill:#7DC58A;" d="M270.658,203.908c0,0,4.7-15.63,12.176-15.381c9.613,0.32,8.972,16.662,14.74,16.021
						c10.505-1.167,7.69-25.634,18.905-23.071c4.965,1.135,3.249,23.413,8.011,26.916c2.997,2.204,9.561-6.258,12.497-8.011
						s6.088-0.961,6.088-0.961l0.321,16.021l-72.737,0.32V203.908z"/>
					
						<rect x="255" y="157.829" style="fill:none;stroke:#FFFFFF;stroke-width:0.5;stroke-miterlimit:10;" width="101.01" height="69.406"/>
					
						<line style="fill:none;stroke:#29245F;stroke-width:0.75;stroke-miterlimit:10;" x1="259.123" y1="168.981" x2="351.887" y2="168.981"/>
					<path style="fill:#DA4946;" d="M267.774,165.456c0-1.062-0.861-1.923-1.923-1.923c-1.062,0-1.922,0.861-1.922,1.923
						c0,1.062,0.861,1.923,1.922,1.923C266.914,167.379,267.774,166.518,267.774,165.456z"/>
					<path style="fill:#EFC22E;" d="M274.824,165.456c0-1.062-0.861-1.923-1.923-1.923c-1.062,0-1.923,0.861-1.923,1.923
						c0,1.062,0.861,1.923,1.923,1.923C273.963,167.379,274.824,166.518,274.824,165.456z"/>
					<path style="fill:#7DC58A;" d="M281.873,165.456c0-1.062-0.861-1.923-1.923-1.923s-1.923,0.861-1.923,1.923
						c0,1.062,0.861,1.923,1.923,1.923S281.873,166.518,281.873,165.456z"/>
					<polyline style="fill:none;stroke:#29245F;stroke-width:0.75;stroke-miterlimit:10;" points="270.658,180.837 270.658,215.763 
						344.036,215.763 					"/>
					<g>
						<path style="fill:#6CAEE7;" d="M321.549,179.199h10.59c1.237,0,2.24-1.003,2.24-2.24l0,0c0-1.237-1.003-2.24-2.24-2.24h-10.59
							c-1.237,0-2.24,1.003-2.24,2.24l0,0C319.309,178.196,320.312,179.199,321.549,179.199z"/>
						<g>
							<rect x="327.602" y="181.673" style="fill:#DA4946;" width="1.974" height="1.974"/>
							<rect x="330.744" y="181.673" style="fill:#DA4946;" width="1.974" height="1.974"/>
							<rect x="330.744" y="184.604" style="fill:#DA4946;" width="1.974" height="1.974"/>
						</g>
					</g>
				</g>
			</g>
		</g>
		<g>
			<g>
				<g>
					<g>
						<g>
							<g>
								<polygon style="fill:#FFA47E;" points="454.548,388.651 447.24,381.456 456.235,368.898 463.363,374.498 467.096,385.699 
																	"/>
								<g>
									<path style="fill:#DA4946;" d="M462.175,373.31c0,0,14.141,5.962,13.407,7.467l-19.687,34.112
										c0,0-4.717-5.943-1.983-13.143c4.128-10.871-0.923-12.743-0.923-12.743l1.265-0.412
										C460.625,386.516,464.152,379.712,462.175,373.31L462.175,373.31z"/>
								</g>
							</g>
							<g>
								<path style="fill:#60A86D;" d="M418.323,317.139c-0.801,1.57,41.419,51.645,41.419,51.645
									c-3.677,6.562-9.08,15.867-9.08,15.867c-0.096,0.189-0.295,0.303-0.506,0.292c0,0-45.8-32.636-61.65-59.267
									c-0.162-0.273-0.32-0.588-0.473-0.94c-3.188-7.353,1.506-15.755,9.372-17.285l36.993-2.479"/>
								<path style="fill:none;stroke:#FFFFFF;stroke-width:0.3922;stroke-miterlimit:10;" d="M406.673,316.217
									c-4.659,7.656-3.152,17.546,3.57,23.472l42.597,40.07"/>
							</g>
						</g>
						<g>
							<g>
								<polygon style="fill:#FFA47E;" points="404.872,402.142 405.66,391.978 421.045,393.367 421.54,402.567 413.776,411.463 
																	"/>
								<g>
									<path style="fill:#DA4946;" d="M421.962,400.941c0,0,2.028,15.212,0.358,15.342l-39.384,0.319
										c0,0,2.732-7.078,10.325-8.371c11.463-1.952,10.517-7.254,10.517-7.254l0.997,0.882
										C409.792,406.299,417.445,405.89,421.962,400.941L421.962,400.941z"/>
								</g>
							</g>
							<g>
								<path style="fill:#7DC58A;" d="M485.542,307.625v1.456c0,15.458-12.413,27.99-27.725,27.99h-30.189
									c-1.763,0-3.047,1.686-2.594,3.406l-2.447,55.981c0.091,0.344-0.166,0.681-0.519,0.681h-10.496
									c-0.212,0-6.369,0.462-6.456,0.266l-8.179-71.583c-3.129-7.088,1.919-15.103,9.605-15.248L485.542,307.625z"/>
								<path style="fill:none;stroke:#FFFFFF;stroke-width:0.3922;stroke-miterlimit:10;" d="M468.017,309.884
									c0,0,2.729,16.918-13.098,16.372c-8.796-0.303-22.987-0.101-33.859,0.139c-7.726,0.17-13.201,7.605-11.078,15.036
									l3.956,55.269"/>
							</g>
						</g>
					</g>
					<g>
						<g>
							<path style="fill:#FFA47E;" d="M380.882,250.099l-8.257-12.786l6.415-6.728c0,0-2.973-8.449-2.66-9.857
								c0.682-3.07,15.363,21.564,15.363,21.564l10.696,10.624l-12.816,12.47L380.882,250.099z"/>
							<g>
								<path style="fill:none;stroke:#3D2108;stroke-width:0.25;stroke-miterlimit:10;" d="M385.613,233.09
									c-1.214,0.593-2.429,1.186-3.643,1.779c-0.336,0.164-0.704,0.364-0.816,0.72c-0.111,0.351,0.08,0.742,0.37,0.969
									c0.29,0.227,0.658,0.324,1.017,0.403c1.62,0.356,3.293,0.468,4.946,0.331"/>
								<path style="fill:none;stroke:#3D2108;stroke-width:0.25;stroke-miterlimit:10;" d="M379.24,230.866
									c0.868,1.141,1.624,2.368,2.252,3.657"/>
								<path style="fill:none;stroke:#3D2108;stroke-width:0.25;stroke-miterlimit:10;" d="M382.236,237.031
									c0.15,0.539-0.449,1.053-1.009,1.028c-0.559-0.025-1.035-0.404-1.44-0.79c-1.121-1.07-2.044-2.347-2.709-3.747"/>
								<path style="fill:none;stroke:#3D2108;stroke-width:0.25;stroke-miterlimit:10;" d="M380.754,238.096
									c-0.096,0.72-0.337,1.421-0.704,2.048c-0.12,0.204-0.269,0.413-0.493,0.488c-0.214,0.071-0.448,0.002-0.653-0.089
									c-0.948-0.425-1.593-1.311-2.192-2.16c-0.649-0.919-1.298-1.838-1.947-2.757"/>
								<path style="fill:none;stroke:#3D2108;stroke-width:0.25;stroke-miterlimit:10;" d="M378.122,240.111
									c-0.094,0.698-0.633,1.316-1.313,1.502c-0.679,0.186-1.459-0.07-1.895-0.622"/>
							</g>
						</g>
						<path style="fill:#DA4946;" d="M430.778,307.801c0,0,10.259-70.718,12.877-75.121c0,0-6.069-3.213-14.161,13.804
							c-8.092,17.017-9.238,21.943-9.238,21.943l-17.815-18.282l-14.548,15.241l32.364,42.075l9.504,1.018"/>
						<g>
							<defs>
								<path id="SVGID_00000096746842457588113850000001573238256716581287_" d="M430.778,307.801c0,0,10.259-70.718,12.877-75.121
									c0,0-6.069-3.213-14.161,13.804c-8.092,17.017-9.238,21.943-9.238,21.943l-17.815-18.282l-14.548,15.241l32.364,42.075
									l9.504,1.018"/>
							</defs>
							<clipPath id="SVGID_00000015346278820147316140000006207597709579714726_">
								<use xlink:href="#SVGID_00000096746842457588113850000001573238256716581287_"  style="overflow:visible;"/>
							</clipPath>
							<g style="clip-path:url(#SVGID_00000015346278820147316140000006207597709579714726_);">
								<path style="fill:none;stroke:#1B314F;stroke-width:0.25;stroke-miterlimit:10;" d="M431.64,234.12
									c3.892,3.882,6.031,9.459,5.733,14.947c-0.298,5.489-3.029,10.801-7.318,14.238c-0.881,0.706-1.909,1.362-3.037,1.321
									c-1.128-0.04-2.262-1.095-1.979-2.187c0.116-0.447,0.44-0.815,0.815-1.084c1.425-1.018,3.518-0.635,4.844,0.509
									c1.326,1.144,2.005,2.87,2.372,4.581c1.599,7.449-2.108,15.405-8.09,20.124c-5.981,4.719-13.86,6.524-21.478,6.39"/>
								<path style="fill:none;stroke:#1B314F;stroke-width:0.25;stroke-miterlimit:10;" d="M391.847,278.787
									c4.383,1.25,9.42,1.025,13.099-1.666c1.605-1.174,2.871-2.747,4.03-4.362c2.664-3.714,4.868-7.758,6.544-12.01"/>
							</g>
						</g>
						<g>
							<path style="fill:#DA4946;" d="M469.331,228.336c0,0,19.066,6.077,21.471,24.772c2.405,18.695-7.048,66.463-7.048,66.463
								s-13.156-4.751-17.965-6.071c-7.109-1.951-12.428-2.056-17.497-2.145l-21.491-0.528l7.941-63.24
								c1.111-4.771,1.704-11.626,6.047-14.361l7.334-4.436l14.52-3.73L469.331,228.336z"/>
							<g>
								<defs>
									<path id="SVGID_00000006692040099569848750000010313935595085612698_" d="M470.833,228.144c0,0,19.066,6.077,21.471,24.772
										c2.405,18.695-8.55,66.655-8.55,66.655s-11.654-4.943-16.463-6.263c-7.109-1.951-12.428-2.056-17.497-2.145l-20.973-0.367
										l7.423-63.401c1.111-4.771,1.704-11.626,6.047-14.362l7.334-4.436l14.52-3.73L470.833,228.144z"/>
								</defs>
								<clipPath id="SVGID_00000010288869540501499980000000814628244220366493_">
									<use xlink:href="#SVGID_00000006692040099569848750000010313935595085612698_"  style="overflow:visible;"/>
								</clipPath>
								
									<path style="clip-path:url(#SVGID_00000010288869540501499980000000814628244220366493_);fill:none;stroke:#1B314F;stroke-width:0.25;stroke-miterlimit:10;" d="
									M441.252,228.074c-0.077,4.808,0.35,9.625,1.272,14.345c0.756,3.871,1.92,7.822,4.538,10.773
									c2.617,2.951,7.021,4.625,10.638,3.052c1.434-0.624,2.751-1.928,2.702-3.491c-0.048-1.563-2.138-2.838-3.28-1.769
									c-0.667,0.624-0.703,1.658-0.646,2.57c0.506,8.157,4.848,15.994,11.495,20.749c6.647,4.755,15.467,6.332,23.35,4.176"/>
								
									<path style="clip-path:url(#SVGID_00000010288869540501499980000000814628244220366493_);fill:none;stroke:#1B314F;stroke-width:0.25;stroke-miterlimit:10;" d="
									M423.044,304.199c2.713-9.375,11.769-16.042,21.378-17.748c9.609-1.706,19.571,0.92,28.257,5.368"/>
							</g>
							<path style="opacity:0.3;fill:#DA4946;" d="M428.179,307.155c5.532-11.064,47.491-72.826,46.733-77.618
								c5.82,3.351,15.857,11.442,17.392,23.379c1.915,14.887-4.773,47.273-7.332,60.32c-0.652,3.325-1.218,6.335-1.218,6.335
								s-11.956-4.29-16.735-5.715c-6.946-2.071-12.227-2.386-17.296-2.474l-23.806-0.576
								C425.371,310.26,427.906,307.701,428.179,307.155z"/>
						</g>
						<g>
							<path style="fill:#FFA47E;" d="M450.783,294.082l-16.973,4.85c0,0-17.117,3.915-21.62,11.536l40.132,0.99L450.783,294.082z"
								/>
							<path style="fill:#DA4946;" d="M469.64,229.362c4.317-2.737,20.781,6.412,24.351,24.024
								c3.623,18.883-2.782,56.406-8.955,58.667c-6.173,2.261-32.716-0.597-32.716-0.597s-1.26-16.706-2.078-21.823l21.13-0.693
								C471.372,288.941,466.57,263.129,469.64,229.362z"/>
							<g>
								<defs>
									<path id="SVGID_00000036938395390832079890000000572735861642453427_" d="M469.64,229.362
										c4.317-2.737,20.781,6.412,24.351,24.024c3.623,18.883-2.782,56.406-8.955,58.667c-6.173,2.261-32.716-0.597-32.716-0.597
										s-1.26-16.706-2.078-21.823l21.13-0.693C471.372,288.941,466.57,263.129,469.64,229.362z"/>
								</defs>
								<clipPath id="SVGID_00000036220448069869623080000004076419586947349180_">
									<use xlink:href="#SVGID_00000036938395390832079890000000572735861642453427_"  style="overflow:visible;"/>
								</clipPath>
								<g style="clip-path:url(#SVGID_00000036220448069869623080000004076419586947349180_);">
									<path style="fill:none;stroke:#1B314F;stroke-width:0.25;stroke-miterlimit:10;" d="M485.207,235.197
										c-2.992,2.815-4.22,7.141-4.024,11.244c0.197,4.103,1.666,8.038,3.393,11.766c1.208,2.608,2.581,5.195,4.6,7.24
										c2.019,2.045,4.783,3.507,7.655,3.4"/>
									<path style="fill:none;stroke:#1B314F;stroke-width:0.25;stroke-miterlimit:10;" d="M462.817,310.116
										c0.926-3.712,3.509-6.877,6.683-9.013c3.174-2.136,6.907-3.317,10.675-3.978c3.836-0.673,7.809-0.83,11.608,0.032
										c3.798,0.862,7.421,2.799,9.896,5.807"/>
								</g>
							</g>
						</g>
					</g>
					<g>
						<g>
							<path style="fill:#FFA47E;" d="M461.892,210.952l2.783,13.214l-5.08,5.773c-7.907,8.532-9.006,2.887-10.488,2.17
								l1.018-15.501l7.368-2.94L461.892,210.952z"/>
							<path style="fill:#E07B51;" d="M457.493,213.668l-7.368,4.072c0,0-0.792,7.128,1.358,7.354
								c1.799,0.189,7.993-5.579,7.354-9.956"/>
						</g>
						<g>
							<path style="fill:#140D0D;" d="M461.947,212.731c0,0,0.991-5.479-0.254-3.946l-3.306-12.293c0,0-2.071,2.377-4.096,3.776
								c-2.025,1.4-6.767,0.614-8.019,0.063c-1.252-0.551-0.734-6.268-0.734-6.268s-3.605-1.968-2.774-3.59
								c0,0-0.565-2.117,2.47-1.976c0,0-1.835-2.893-0.494-4.446c1.341-1.553,4.869-3.317,6.775-1.2c0,0,1.552-2.258,3.599-2.046
								c2.047,0.212,3.105,0.635,3.811,2.188c0,0,2.682-1.976,4.022,0c1.341,1.976,1.129,3.669,1.129,3.669s2.823-0.917,3.246,0.565
								c0.423,1.482-1.482,3.105-1.482,3.105s1.764,0.423,1.552,1.341c-0.212,0.917-1.142,2.961-1.142,2.961
								s-0.128,4.379-3.558,18.522"/>
							<path style="fill:#140D0D;" d="M460.033,202.614l1.66,6.171c1.245-1.533,0.254,3.946,0.254,3.946l0.744,0.424
								c1.15-4.741,1.927-8.38,2.455-11.13C463.311,201.703,461.452,201.787,460.033,202.614z"/>
							<path style="fill:#FFA47E;" d="M445.127,193.866c-2.47,18.556-1.782,24.068-0.046,25.506c2.498,2.07,7.03,0.82,9.235-0.019
								c3.618-1.376,6.173-5.218,6.968-6.36c0.392-0.564,4.955,0.378,4.339-3.96c-0.454-3.196-2.155-2.175-3.019-1.415
								c-0.252,0.221-0.648,0.114-0.755-0.203c-0.64-1.891-2.717-9.025-3.403-11.311c-0.298-0.991-4.639-0.837-5.069-0.9
								c-3.747-0.546-7.116-0.443-8.076-1.201L445.127,193.866z"/>
							<g>
								<path style="fill:#FFFFFF;" d="M444.606,210.428c0,0,1.395,0.756,4.893,0.589c0,0-1.983,2.399-3.334,1.859
									C444.814,212.335,444.606,210.428,444.606,210.428z"/>
								<path style="fill:#E07B51;" d="M464.948,208.682l-2.505,1.681C462.442,210.364,463.537,206.079,464.948,208.682z"/>
								<path style="fill:#140D0D;" d="M447.673,205.527c-0.023,0.518,0.169,0.947,0.427,0.958c0.259,0.011,0.487-0.399,0.51-0.917
									c0.023-0.518-0.169-0.947-0.428-0.958C447.924,204.598,447.696,205.009,447.673,205.527z"/>
								<path style="fill:#140D0D;" d="M444.642,204.934c-0.023,0.518,0.169,0.947,0.428,0.958c0.259,0.011,0.487-0.399,0.51-0.917
									c0.023-0.518-0.169-0.947-0.428-0.958C444.893,204.005,444.664,204.416,444.642,204.934z"/>
								<path style="fill:#140D0D;" d="M451.648,201.112c0.674,0.504-0.319-1.687-1.253-1.967c-0.934-0.28-1.887,0.146-2.129,0.953
									C448.267,200.097,450.029,199.9,451.648,201.112z"/>
								<path style="fill:#140D0D;" d="M444.233,201.126c1.001-0.083,1.709,0.121,1.709,0.121c-0.096-0.778-0.806-1.351-1.67-1.41"
									/>
								<path style="fill:#E07B51;" d="M446.078,204.97l-1.603,3.909c-0.026,0.064,0.013,0.136,0.077,0.143l1.681,0.199
									c0.058,0.007,0.109-0.042,0.108-0.105l-0.078-4.108C446.262,204.897,446.12,204.868,446.078,204.97z"/>
							</g>
						</g>
					</g>
				</g>
			</g>
		</g>
	</g>
</g>
</svg>
