<svg version="1.0" xmlns="http://www.w3.org/2000/svg"
 width="7730.000000pt" height="7730.000000pt" viewBox="0 0 7730.000000 7730.000000"
 preserveAspectRatio="xMidYMid meet">
<metadata>
Created by potrace 1.16, written by Peter Selinger 2001-2019
</metadata>
<g transform="translate(0.000000,7730.000000) scale(0.100000,-0.100000)"
fill="#00f6dd" stroke="none">
<path d="M13750 56404 c-924 -4 -2494 -23 -2781 -34 -515 -20 -884 -114 -1314
-333 -268 -137 -520 -322 -740 -542 -501 -501 -803 -1149 -865 -1855 -8 -90
-10 -3956 -8 -13945 3 -12983 5 -13828 21 -13945 43 -312 99 -564 182 -815
283 -861 855 -1616 1605 -2121 379 -255 777 -439 1208 -559 126 -35 351 -85
384 -85 11 0 35 36 72 105 236 446 634 794 996 871 50 11 176 14 554 14 l488
0 -6 23 c-45 159 -55 373 -23 510 78 331 291 535 641 612 28 6 26 3 -29 -57
-249 -268 -382 -613 -361 -935 17 -261 143 -536 324 -705 42 -40 60 -48 128
-64 70 -17 122 -19 454 -18 391 1 595 11 1115 60 504 46 1133 120 1625 190
135 19 290 37 345 39 55 3 135 7 179 10 l79 5 -7 -95 -7 -95 33 0 c52 0 470
28 678 45 933 78 1995 225 2940 407 l325 63 1134 3 1134 2 191 -35 c694 -126
1372 -227 1981 -294 193 -22 592 -58 690 -63 l60 -3 0 30 c0 29 1 29 50 27
194 -10 337 -28 595 -71 1505 -256 2799 -389 3155 -325 l90 17 70 71 c208 211
315 469 315 761 0 304 -124 615 -336 844 l-68 74 34 -8 c257 -56 457 -210 561
-430 66 -140 74 -186 74 -402 l0 -193 1805 -2 1805 -3 40 -22 c85 -46 115
-101 115 -215 -1 -198 -90 -385 -250 -522 -102 -88 -250 -155 -381 -172 -88
-12 -143 -83 -198 -256 -222 -702 -237 -2811 -25 -3618 48 -183 104 -298 157
-320 12 -5 67 -14 122 -19 176 -18 286 -70 405 -190 81 -82 127 -162 155 -266
17 -68 20 -192 5 -247 -15 -53 -68 -127 -118 -165 l-43 -33 2443 -2 2443 -3
55 -22 c111 -46 207 -142 253 -253 l22 -55 3 -2077 2 -2078 4293 0 4294 0
-124 123 c-364 358 -773 826 -1084 1242 -613 816 -1113 1716 -1494 2685 -108
275 -156 411 -395 1130 -691 2079 -1340 3719 -2029 5125 -200 408 -538 1043
-577 1084 -11 12 -985 31 -6323 122 -3745 64 -6340 112 -6383 118 -429 62
-1253 90 -2088 71 -294 -6 -604 -15 -689 -19 -146 -7 -159 -6 -228 16 -41 13
-117 26 -168 31 l-95 7 24 51 23 50 169 -3 c674 -15 15480 -263 15556 -261
l98 3 -58 95 c-68 111 -82 146 -82 209 1 85 61 171 142 205 64 27 127 20 240
-25 260 -103 623 -265 969 -432 l176 -84 1019 -17 c560 -9 1100 -19 1198 -22
l179 -6 -6 83 c-4 46 -14 221 -23 389 -9 168 -17 306 -18 307 -1 1 -1671 22
-3711 47 -2041 25 -3872 48 -4070 51 -198 3 -567 7 -820 10 -253 3 -624 7
-825 10 -512 7 -1889 23 -2555 30 -308 3 -681 7 -830 10 -148 3 -522 7 -830
10 -308 3 -652 8 -765 10 -113 3 -506 7 -875 10 -368 3 -717 7 -775 10 -58 3
-447 7 -865 11 -418 3 -763 9 -767 13 -5 4 148 56 340 115 191 60 388 124 437
144 421 164 785 457 1027 827 128 195 242 469 288 687 59 288 54 602 -15 878
-150 598 -531 1041 -1040 1209 -190 63 -277 75 -530 76 -245 0 -294 -5 -495
-55 -218 -54 -340 -104 -673 -278 -110 -57 -201 -101 -204 -98 -3 2 22 74 55
158 226 577 371 1248 439 2028 26 294 25 1229 0 1535 -43 517 -128 1126 -186
1343 l-12 41 -107 -56 c-657 -344 -1326 -750 -1526 -926 l-37 -32 12 -388 c6
-214 8 -441 4 -504 -7 -111 -8 -115 -29 -109 -11 3 -1836 6 -4055 6 l-4033 0
6 93 c18 246 39 482 62 681 22 197 23 220 10 235 -29 32 -249 188 -421 299
-279 179 -719 431 -1128 645 l-108 57 -10 -27 c-77 -202 -206 -725 -273 -1106
-231 -1303 -162 -2528 199 -3542 30 -82 63 -172 75 -199 11 -27 18 -51 16 -53
-3 -3 -58 24 -123 60 -302 166 -447 228 -663 282 -144 37 -288 55 -440 55
-372 0 -675 -96 -972 -310 -93 -66 -263 -242 -341 -350 -219 -308 -367 -771
-367 -1153 -1 -730 444 -1379 1208 -1762 110 -55 412 -179 755 -310 54 -20 97
-38 95 -40 -9 -8 -4588 55 -4693 65 -786 75 -1474 524 -1863 1215 -135 240
-231 528 -279 835 -17 110 -18 664 -18 13205 0 12523 1 13095 18 13195 10 58
29 148 43 200 175 651 698 1155 1358 1311 173 40 282 48 591 44 273 -4 386 -7
995 -20 135 -3 1804 -37 3710 -75 1906 -38 3573 -72 3705 -75 132 -3 10385
-210 22785 -460 12400 -249 22604 -458 22675 -464 306 -26 593 -131 845 -309
121 -85 306 -270 393 -392 89 -125 197 -346 241 -490 31 -105 59 -253 69 -370
5 -60 -80 -25410 -86 -25705 -10 -410 -82 -713 -253 -1045 -105 -207 -296
-465 -450 -611 -293 -277 -653 -478 -1026 -574 -277 -70 -277 -70 -1028 -68
-371 2 -720 5 -776 9 l-101 6 -7 271 c-41 1620 -100 2899 -181 3922 -22 274
-50 396 -128 550 -117 234 -331 439 -567 541 -178 77 -213 82 -1510 204 -2690
251 -5185 428 -7070 500 -712 27 -898 31 -1650 37 -939 7 -1707 -13 -1915 -48
-385 -66 -719 -348 -839 -709 -54 -164 -55 -175 -76 -1015 -39 -1571 -94
-4060 -110 -5025 -5 -333 -14 -789 -20 -1015 -20 -808 -62 -3568 -90 -5865
-27 -2186 -22 -5378 10 -6405 10 -317 20 -382 81 -513 104 -225 280 -380 514
-453 94 -30 233 -38 975 -59 1884 -54 2750 -74 4725 -111 896 -16 4143 -23
4880 -10 1168 21 1652 40 1803 71 598 121 1049 614 1111 1215 10 94 17 383 41
1770 46 2638 78 6504 65 7981 l-7 811 444 6 c244 4 664 7 933 8 757 0 1429 15
1565 34 369 51 678 147 998 309 856 436 1456 1260 1611 2214 35 216 38 279 86
2197 39 1540 73 3342 95 4955 47 3495 41 7974 -15 10390 -3 129 -10 433 -15
675 -93 4089 -306 7533 -611 9865 -114 868 -154 1087 -253 1376 -366 1068
-1305 1867 -2412 2053 -197 33 -298 40 -794 56 -261 8 -542 17 -625 20 -82 2
-235 7 -340 10 -104 3 -255 7 -335 10 -80 3 -246 7 -370 10 -124 3 -281 7
-350 10 -69 3 -231 7 -360 10 -129 3 -293 7 -365 10 -71 3 -236 7 -365 10
-129 3 -395 10 -590 15 -544 15 -712 19 -1145 30 -220 6 -467 12 -550 15 -82
2 -251 7 -375 10 -233 5 -496 12 -805 20 -99 3 -277 7 -395 10 -118 3 -300 7
-405 10 -104 3 -291 7 -415 10 -124 3 -304 7 -400 10 -96 3 -281 7 -410 10
-412 9 -1059 25 -1235 30 -93 2 -285 7 -425 10 -140 3 -327 7 -415 10 -88 2
-293 7 -455 10 -162 3 -342 8 -400 10 -58 2 -249 7 -425 10 -176 3 -381 7
-455 10 -74 3 -254 7 -400 10 -146 3 -355 7 -465 10 -110 3 -306 7 -435 10
-408 9 -690 15 -865 20 -93 2 -309 7 -480 10 -170 3 -359 7 -420 10 -60 2
-267 7 -460 10 -192 3 -406 7 -475 10 -69 3 -258 7 -420 10 -162 3 -374 7
-470 10 -96 3 -303 7 -460 10 -157 3 -377 7 -490 10 -113 3 -317 7 -455 10
-137 3 -342 7 -455 10 -113 3 -320 7 -460 10 -140 3 -352 7 -470 10 -118 3
-327 7 -465 10 -400 8 -733 15 -985 20 -129 3 -356 7 -505 10 -148 3 -603 12
-1010 20 -407 8 -837 17 -955 20 -118 2 -368 7 -555 10 -187 3 -414 7 -505 10
-91 3 -318 7 -505 10 -187 3 -419 7 -515 10 -96 3 -328 7 -515 10 -187 3 -437
7 -555 10 -118 3 -350 7 -515 10 -292 5 -553 10 -1055 20 -135 3 -402 7 -595
10 -192 3 -429 7 -525 10 -521 15 -6120 107 -7315 120 -275 3 -585 7 -690 10
-104 3 -415 7 -690 10 -275 3 -601 8 -725 10 -672 15 -4391 57 -6675 75 -1338
10 -4360 18 -5425 14z m9320 -25783 c193 -61 348 -220 406 -416 22 -73 24
-227 5 -305 -59 -243 -254 -395 -506 -393 -255 1 -475 174 -540 424 -22 82
-22 252 0 334 40 153 129 271 248 330 40 19 92 40 117 45 66 14 196 5 270 -19z
m30560 -1131 c1485 -48 3111 -140 5110 -290 1120 -84 2977 -240 3100 -260 422
-70 753 -377 861 -800 37 -142 43 -338 43 -1440 1 -1279 -8 -1878 -54 -3520
-5 -190 -12 -417 -15 -505 -3 -88 -12 -362 -20 -610 -64 -1941 -182 -4674
-315 -7285 -92 -1792 -91 -1780 -144 -1936 -51 -151 -128 -275 -248 -400 -94
-98 -194 -169 -321 -229 -169 -80 -274 -96 -842 -129 -1378 -81 -3242 -86
-5575 -16 -1478 45 -4146 170 -4366 205 -373 59 -678 340 -775 714 -31 119
-39 361 -46 1471 -5 884 5 2295 22 2960 3 102 7 325 10 495 3 171 7 389 10
485 3 96 7 285 10 420 7 313 14 611 20 820 3 91 7 257 10 370 7 278 24 859 30
1055 3 88 10 309 15 490 54 1779 216 6124 260 6955 13 249 43 365 136 523 124
213 361 381 607 431 72 15 331 32 622 40 223 6 1538 -3 1855 -14z m-39560
-4805 c4105 -68 4313 -73 4265 -87 -16 -4 -140 -38 -275 -73 l-245 -65 -3910
65 c-2151 36 -3975 68 -4054 71 -134 6 -146 8 -168 30 -32 32 -29 69 7 106
l30 30 233 -6 c127 -4 1980 -36 4117 -71z m51579 -879 l1874 -32 23 -28 c32
-37 30 -71 -5 -107 l-29 -29 -214 6 c-207 5 -3667 64 -3774 64 l-54 0 0 80 0
80 153 -1 c83 0 995 -15 2026 -33z m-26304 -51 c246 -64 438 -253 501 -495 22
-86 23 -245 1 -330 -50 -194 -183 -359 -358 -443 -209 -101 -402 -101 -609 0
-253 124 -408 409 -371 683 22 168 82 290 199 407 58 57 94 83 165 118 51 25
117 51 147 59 75 20 250 20 325 1z"/>
<path d="M56300 22996 c-164 -60 -4592 -1894 -4616 -1912 -47 -35 -78 -106
-77 -179 0 -70 18 -119 60 -161 22 -21 598 -290 2087 -972 1666 -763 2065
-942 2098 -942 30 0 706 252 2567 957 1389 527 2539 967 2555 978 70 47 103
168 72 262 -30 90 -45 99 -482 278 -2882 1176 -4186 1705 -4205 1705 -13 -1
-40 -7 -59 -14z"/>
<path d="M60688 20388 l-88 -30 0 -434 0 -435 -55 -102 c-117 -221 -214 -481
-263 -707 -24 -115 -26 -143 -26 -350 0 -211 2 -231 26 -321 63 -233 156 -401
316 -569 62 -65 103 -78 135 -42 8 9 101 192 206 406 223 456 227 467 218 675
-4 93 -14 170 -30 241 -53 222 -168 501 -316 764 -68 121 -81 152 -80 188 0
24 15 202 32 396 21 226 29 352 22 351 -5 0 -49 -14 -97 -31z"/>
<path d="M52890 19823 c0 -15 47 -413 105 -883 73 -604 110 -872 124 -913 47
-135 135 -252 240 -319 71 -45 504 -179 900 -277 677 -170 1222 -247 1822
-258 327 -6 546 4 821 38 523 64 1047 214 1483 424 116 56 137 70 197 133 42
45 79 97 102 144 34 71 574 1854 564 1864 -3 2 -759 -282 -1680 -631 -1225
-464 -1686 -635 -1716 -635 -33 0 -321 128 -1484 661 -794 364 -1451 665
-1460 670 -15 8 -18 5 -18 -18z"/>
<path d="M39040 23591 c-168 -54 -291 -173 -347 -333 -33 -94 -34 -222 -4
-319 76 -241 325 -398 572 -360 195 31 364 177 421 364 17 57 20 87 16 178 -4
104 -6 112 -47 195 -70 140 -182 234 -330 278 -73 21 -210 20 -281 -3z"/>
<path d="M40995 50586 c-33 -8 -438 -170 -900 -361 -462 -191 -876 -362 -920
-380 -90 -37 -1046 -431 -2115 -872 -393 -163 -778 -322 -855 -353 -77 -32
-257 -106 -400 -165 -143 -59 -325 -134 -405 -167 -211 -86 -234 -96 -1050
-433 -410 -169 -783 -323 -830 -342 -47 -19 -274 -113 -505 -208 -1118 -462
-2354 -972 -2545 -1050 -81 -33 -1120 -462 -1380 -570 -124 -51 -299 -123
-390 -160 -472 -194 -487 -201 -572 -293 -56 -62 -117 -180 -139 -272 -17 -71
-18 -249 0 -320 25 -105 88 -219 160 -291 71 -71 91 -82 426 -234 88 -40 189
-87 225 -103 110 -51 542 -249 1025 -470 253 -116 494 -226 535 -245 122 -56
193 -89 435 -199 127 -58 257 -118 290 -133 33 -15 168 -77 300 -137 132 -61
292 -134 355 -163 63 -29 169 -77 235 -108 66 -30 284 -130 485 -222 384 -177
584 -268 945 -433 121 -55 333 -152 470 -215 138 -63 439 -201 670 -307 580
-266 1451 -665 1669 -765 100 -45 309 -141 466 -213 157 -72 314 -144 350
-160 81 -38 1196 -548 1500 -687 124 -57 261 -120 305 -140 119 -55 526 -241
637 -291 115 -52 203 -68 287 -55 32 5 281 94 552 196 272 103 625 237 784
297 160 61 355 135 435 165 80 30 226 86 325 123 99 38 621 235 1160 440 539
205 1144 434 1345 510 329 124 2305 873 2955 1120 143 54 505 192 805 305 553
210 643 244 1425 540 242 92 571 217 730 277 160 60 353 134 430 163 77 29
223 85 325 123 102 39 253 96 335 127 83 31 231 88 330 125 99 37 527 199 950
360 424 161 846 321 939 356 193 73 244 102 318 183 135 145 190 374 143 594
-33 156 -149 319 -273 381 -29 15 -252 108 -495 207 -243 99 -595 243 -782
319 -187 76 -430 175 -540 220 -213 87 -518 211 -650 265 -96 39 -1716 700
-2250 918 -209 85 -2043 833 -4075 1662 -2032 829 -3718 1515 -3746 1525 -74
26 -168 32 -239 16z"/>
<path d="M26235 44785 c-243 -54 -433 -171 -795 -490 -323 -284 -467 -366
-645 -368 -99 -1 -166 18 -293 83 -158 80 -288 114 -492 130 -248 18 -631 -34
-876 -121 -33 -12 -97 -23 -146 -26 -107 -7 -217 16 -423 89 -310 109 -501
139 -675 104 -324 -65 -584 -320 -731 -717 -156 -424 -258 -1405 -219 -2119
35 -628 148 -1119 341 -1478 33 -62 61 -134 84 -215 89 -323 223 -583 415
-805 l72 -83 -9 -330 c-5 -181 -12 -331 -15 -335 -4 -3 -250 -52 -547 -108
-297 -56 -543 -105 -546 -108 -10 -10 61 -212 123 -347 335 -731 946 -1189
1747 -1308 185 -28 628 -24 825 6 507 77 885 255 1194 559 232 229 403 517
502 846 24 78 54 213 54 239 0 16 40 7 -690 163 -321 69 -585 126 -586 127 -3
5 -25 359 -22 361 2 1 48 41 103 88 475 409 908 1195 1140 2072 19 71 36 129
37 130 118 74 430 373 559 536 342 431 610 950 825 1595 77 231 155 500 183
628 120 552 53 998 -171 1150 -94 64 -196 80 -323 52z"/>
<path d="M53063 43372 l-253 -87 0 -1197 0 -1196 -56 -99 c-96 -168 -229 -430
-322 -633 -676 -1476 -789 -2830 -325 -3900 171 -395 423 -760 734 -1066 91
-89 123 -114 157 -123 55 -15 110 -1 159 42 37 33 42 41 513 1002 70 143 219
445 330 670 111 226 215 444 231 485 187 480 150 1143 -107 1945 -189 588
-530 1318 -901 1927 l-84 138 96 1063 c52 584 95 1074 95 1090 0 15 -3 27 -7
26 -5 0 -122 -39 -260 -87z"/>
<path d="M31510 41857 c0 -12 49 -427 110 -922 60 -495 188 -1548 285 -2340
107 -884 185 -1486 200 -1558 70 -322 218 -605 429 -825 204 -212 355 -299
718 -416 2157 -695 4179 -1116 6023 -1255 544 -41 680 -46 1375 -46 678 0 815
4 1280 41 1239 96 2453 350 3555 741 580 206 1311 525 1514 660 174 116 375
344 489 553 84 156 101 205 347 1030 70 234 259 868 421 1410 163 542 372
1242 466 1555 93 314 212 711 264 884 52 173 93 318 92 321 -2 4 -196 -67
-433 -157 -236 -90 -536 -203 -665 -252 -474 -180 -1711 -649 -2275 -863 -319
-120 -661 -250 -760 -288 -99 -37 -936 -355 -1860 -705 -924 -350 -1826 -692
-2005 -760 -179 -68 -532 -202 -786 -298 -253 -96 -487 -180 -519 -187 -64
-13 -152 -7 -213 14 -20 7 -575 260 -1232 561 -657 301 -1271 583 -1365 625
-178 81 -2052 940 -2165 992 -36 17 -112 52 -170 78 -76 34 -2269 1039 -2915
1335 -218 101 -205 96 -205 72z"/>
<path d="M45023 23994 c1 -1 92 -52 202 -112 636 -348 1270 -751 1849 -1174
81 -60 150 -108 152 -106 2 2 -6 78 -16 168 -26 219 -66 649 -89 943 -10 131
-20 240 -23 242 -2 3 -405 11 -894 20 -489 8 -955 16 -1036 18 -81 2 -146 2
-145 1z"/>
</g>
</svg>
