<?xml version="1.0" standalone="no"?>
<!DOCTYPE svg PUBLIC "-//W3C//DTD SVG 20010904//EN"
 "http://www.w3.org/TR/2001/REC-SVG-20010904/DTD/svg10.dtd">
<svg version="1.0" xmlns="http://www.w3.org/2000/svg"
 width="300.000000pt" height="186.000000pt" viewBox="0 0 300.000000 186.000000"
 preserveAspectRatio="xMidYMid meet">
<metadata>
Created by potrace 1.10, written by Peter Selinger 2001-2011
</metadata>
<g transform="translate(0.000000,186.000000) scale(0.100000,-0.100000)"
fill="#00f6ff" stroke="none">
<path d="M1670 1598 c-41 -27 -74 -54 -72 -59 4 -15 63 -94 70 -94 4 0 41 22
84 49 l76 48 -32 51 c-18 28 -37 52 -42 53 -5 1 -43 -20 -84 -48z m76 -15 c-5
-21 -4 -24 4 -13 8 13 11 13 19 1 16 -24 6 -40 -42 -70 -32 -21 -44 -25 -40
-14 5 12 3 14 -6 8 -8 -4 -17 -2 -22 6 -5 8 -3 17 4 21 7 5 3 8 -11 8 -33 0
-25 15 28 49 59 38 74 39 66 4z"/>
<path d="M1533 1518 c-15 -20 -36 -78 -31 -84 3 -2 11 10 18 28 7 18 20 41 28
51 8 9 10 17 5 17 -6 0 -15 -6 -20 -12z"/>
<path d="M1605 1460 c-4 -6 -12 -9 -19 -8 -6 2 -24 -7 -40 -20 -35 -27 -27
-28 24 -2 34 17 60 40 46 40 -3 0 -8 -5 -11 -10z"/>
<path d="M735 1354 c-14 -31 -24 -58 -23 -59 2 -1 25 -12 51 -23 31 -14 47
-17 44 -9 -2 6 -12 14 -23 15 -35 6 -43 29 -25 67 18 39 42 44 71 15 11 -11
26 -20 34 -20 39 0 40 -43 0 -97 -15 -22 -15 -23 2 -23 13 0 28 18 46 55 l27
55 -36 15 c-19 8 -42 15 -49 15 -8 0 -14 4 -14 8 0 4 -15 14 -32 22 -18 7 -36
15 -40 17 -4 3 -19 -21 -33 -53z"/>
<path d="M2049 1326 c-46 -16 -78 -35 -59 -35 8 0 26 6 40 14 29 17 76 19 85
5 3 -5 11 -10 17 -10 16 0 -9 27 -31 33 -10 2 -33 -1 -52 -7z"/>
<path d="M1016 1308 c3 -13 10 -30 15 -38 7 -13 8 -13 9 0 0 27 -12 60 -22 60
-5 0 -6 -10 -2 -22z"/>
<path d="M1322 1290 c-12 -16 -22 -36 -22 -45 0 -23 32 -146 37 -142 2 3 -4
34 -13 71 -15 61 -15 68 0 91 9 14 30 28 46 32 34 6 31 23 -4 23 -13 0 -31
-12 -44 -30z"/>
<path d="M1433 1290 c-31 -28 -36 -54 -19 -94 25 -61 91 -72 136 -24 31 34 23
93 -19 125 -24 19 -75 15 -98 -7z m67 -55 c0 -19 -4 -35 -10 -35 -5 0 -10 11
-10 25 0 14 -4 25 -10 25 -5 0 -10 5 -10 10 0 6 9 10 20 10 16 0 20 -7 20 -35z"/>
<path d="M2131 1240 c-7 -27 -17 -52 -22 -56 -15 -9 -10 -34 6 -28 14 6 31 41
27 57 -1 4 4 10 12 13 9 3 12 12 9 21 -5 13 -1 15 20 9 34 -8 43 8 11 23 -41
18 -50 13 -63 -39z"/>
<path d="M950 1275 c0 -8 63 -45 75 -45 6 1 -2 8 -17 16 -16 8 -28 19 -28 24
0 6 -7 10 -15 10 -8 0 -15 -2 -15 -5z"/>
<path d="M1960 1265 c0 -2 10 -10 23 -17 25 -14 87 -19 87 -7 0 13 -15 18 -29
10 -8 -5 -25 -3 -40 5 -27 14 -41 17 -41 9z"/>
<path d="M2232 1248 c3 -7 26 -19 51 -26 28 -8 47 -19 47 -28 0 -8 -4 -14 -10
-14 -5 0 -9 -3 -8 -7 4 -13 -20 -73 -29 -73 -4 0 -17 7 -27 15 -19 14 -36 12
-36 -6 0 -5 8 -9 18 -9 9 0 26 -7 36 -15 11 -8 22 -15 26 -15 3 0 14 23 25 51
11 28 26 54 32 56 22 9 -4 41 -39 48 -18 4 -37 11 -43 15 -22 15 -47 20 -43 8z"/>
<path d="M1273 1222 c-3 -12 -9 -22 -14 -22 -4 0 -14 -10 -20 -22 l-12 -23 22
20 c28 24 45 54 36 63 -3 3 -8 -4 -12 -16z"/>
<path d="M905 1162 c-141 -4 -146 -26 -49 -231 l67 -140 27 29 28 30 -40 75
c-21 41 -41 75 -44 75 -2 0 9 -27 26 -60 16 -33 30 -65 29 -72 0 -10 -129 246
-129 257 0 0 41 -1 91 -3 70 -4 93 -1 101 9 7 11 11 11 15 2 3 -9 29 -13 77
-13 58 0 76 4 89 18 10 10 17 20 17 23 0 2 -33 4 -72 4 -52 0 -77 -4 -86 -15
-12 -13 -13 -13 -9 1 4 12 -1 16 -21 15 -15 -1 -67 -2 -117 -4z"/>
<path d="M1795 1132 c-14 -14 -2 -34 25 -43 17 -6 30 -16 30 -21 0 -7 5 -6 14
1 21 18 31 -5 16 -35 -11 -20 -11 -27 5 -44 17 -19 19 -19 38 -3 30 27 36 55
21 85 -19 37 -17 50 2 14 14 -25 18 -27 31 -13 23 23 8 57 -25 57 -15 0 -55 2
-89 4 -34 2 -65 1 -68 -2z"/>
<path d="M1606 1048 c9 -77 22 -125 41 -144 22 -21 92 -53 118 -54 27 0 8 14
-47 34 -56 20 -75 47 -84 115 -8 63 6 67 32 9 24 -53 52 -68 130 -68 85 0 118
-13 132 -54 7 -18 12 -40 12 -50 0 -12 5 -16 15 -12 17 6 21 -9 4 -20 -6 -3
-8 -17 -5 -30 4 -13 2 -24 -2 -24 -5 0 -8 -12 -7 -27 1 -16 -4 -42 -10 -59 -8
-19 -9 -37 -4 -45 5 -8 9 -40 9 -71 0 -52 -2 -59 -27 -72 l-28 -15 32 -1 c17
0 34 4 37 8 3 5 6 69 7 142 1 115 4 135 20 151 24 24 24 40 0 81 -65 115 -67
117 -81 108 -8 -5 -21 -5 -31 1 -10 5 -51 9 -92 9 l-74 0 -22 56 c-11 31 -21
62 -21 70 0 9 -11 14 -30 14 l-29 0 5 -52z"/>
<path d="M1341 1087 c-1 -5 11 -54 25 -110 15 -56 28 -111 29 -121 1 -11 6
-21 12 -23 5 -2 -5 52 -24 119 -35 129 -41 148 -42 135z"/>
<path d="M990 852 c0 -10 120 -52 150 -52 23 0 24 1 5 13 -49 33 -155 59 -155
39z"/>
<path d="M1776 813 c-3 -16 -8 -37 -11 -48 -4 -14 7 -34 41 -70 26 -27 39 -38
29 -23 -9 15 -14 32 -10 38 3 5 0 10 -8 10 -19 0 -36 41 -30 73 3 17 15 30 32
36 l26 9 -31 1 c-26 1 -32 -3 -38 -26z"/>
<path d="M1410 814 c-1 -27 23 -72 43 -82 35 -17 77 -23 77 -12 0 5 -12 10
-27 10 -36 1 -59 19 -77 61 -9 19 -15 29 -16 23z"/>
<path d="M748 734 c-71 -35 -128 -66 -128 -70 0 -12 81 -174 87 -174 13 0 263
124 263 130 0 15 -81 180 -88 179 -4 -1 -64 -30 -134 -65z m130 2 c-3 -15 -1
-23 6 -20 16 6 46 -49 44 -80 -1 -14 -6 -26 -11 -26 -4 0 -46 -18 -93 -40 -94
-44 -99 -46 -88 -27 6 9 4 9 -8 -1 -13 -11 -18 -7 -32 28 -20 50 -20 50 2 51
11 1 8 4 -8 8 -45 12 -27 34 70 82 111 56 124 59 118 25z"/>
<path d="M1127 774 c-15 -8 -43 -16 -61 -18 -18 -2 -44 -10 -57 -19 -13 -10
-29 -17 -36 -17 -7 0 -13 -2 -13 -5 0 -11 86 -180 93 -183 4 -2 7 -10 7 -17 0
-19 178 -386 198 -408 9 -11 27 -23 38 -28 29 -11 526 16 552 30 12 6 28 21
36 32 14 20 10 31 -50 152 -39 78 -69 126 -75 120 -5 -5 9 -43 36 -95 l44 -86
-217 -6 c-119 -3 -243 -8 -275 -10 l-58 -4 -36 71 c-26 50 -38 66 -41 53 -3
-12 -19 13 -48 74 -52 109 -52 134 0 31 20 -39 38 -71 41 -71 3 0 -21 52 -52
115 -32 63 -59 112 -61 110 -2 -2 2 -13 8 -25 6 -12 9 -24 6 -27 -3 -3 -22 30
-42 73 -20 43 -39 84 -42 89 -3 6 2 4 12 -4 16 -13 17 -12 11 12 -7 25 -5 27
21 22 30 -6 94 25 94 45 0 12 1 12 -33 -6z m707 -583 c48 -40 -3 -58 -189 -66
-77 -3 -180 -8 -228 -10 -99 -5 -120 2 -135 43 l-10 29 126 6 c93 4 129 3 134
-6 6 -9 11 -8 19 3 7 11 12 12 15 3 4 -8 20 -10 46 -7 27 3 44 1 50 -8 6 -9 8
-7 4 8 -6 19 -2 20 73 19 49 -1 86 -6 95 -14z"/>
<path d="M1730 724 c0 -14 4 -23 10 -19 6 3 10 1 10 -4 0 -6 -4 -11 -10 -11
-5 0 -10 -19 -9 -42 l1 -43 10 38 c6 20 14 37 19 37 5 0 3 13 -5 29 -9 16 -12
31 -9 35 4 3 1 6 -5 6 -7 0 -12 -12 -12 -26z"/>
<path d="M1550 712 c0 -10 4 -23 9 -30 6 -11 9 -10 13 5 3 10 7 22 9 27 2 5
-4 10 -13 12 -11 1 -18 -4 -18 -14z"/>
<path d="M1291 688 c-1 -10 8 -32 19 -50 28 -46 26 -68 -5 -68 -17 0 -25 6
-25 17 0 29 -10 8 -14 -33 l-5 -39 19 23 c17 20 48 32 36 14 -2 -4 7 -9 22
-10 15 -1 41 -11 57 -23 l30 -21 -32 31 c-20 18 -39 28 -48 25 -8 -4 -15 -2
-15 4 0 6 5 12 11 14 7 2 0 28 -19 68 -17 36 -31 57 -31 48z"/>
<path d="M1670 655 c3 -27 -3 -50 -18 -80 -3 -5 4 -2 15 8 16 14 20 26 16 55
-6 45 -16 59 -13 17z"/>
<path d="M2100 643 c-24 -15 -39 -28 -32 -31 6 -2 24 5 39 16 38 25 61 33 68
22 4 -6 11 -10 17 -10 7 0 6 6 -2 15 -18 21 -39 19 -90 -12z"/>
<path d="M2202 589 c-18 -77 -19 -75 61 -93 39 -9 81 -19 93 -22 19 -5 22 1
32 52 7 31 12 61 12 65 0 5 -164 49 -184 49 -1 0 -8 -23 -14 -51z m121 4 c50
-8 54 -19 16 -38 -30 -16 -30 -17 -12 -37 18 -21 18 -21 -11 -14 -15 4 -41 10
-57 13 -16 3 -26 10 -23 15 4 6 19 7 35 4 l29 -6 -35 31 c-42 38 -45 54 -7 45
15 -4 44 -9 65 -13z"/>
<path d="M2456 590 c12 -5 32 -27 45 -49 12 -23 29 -41 36 -41 7 0 13 2 13 4
0 14 -86 96 -99 95 -11 0 -9 -3 5 -9z"/>
<path d="M2071 579 c17 -11 95 -12 85 -1 -4 4 -28 8 -53 8 -29 1 -40 -2 -32
-7z"/>
<path d="M1814 535 c2 -5 9 -27 17 -47 20 -57 46 -51 51 10 l3 48 -38 -1 c-20
0 -36 -4 -33 -10z"/>
<path d="M2440 510 c-6 -4 8 -13 30 -20 22 -7 42 -11 44 -9 7 8 -63 36 -74 29z"/>
<path d="M1408 478 c7 -9 32 -23 57 -33 25 -9 45 -20 45 -25 0 -4 33 -33 74
-65 65 -49 77 -55 95 -45 12 6 26 8 31 5 6 -3 7 1 4 9 -5 12 -11 13 -24 6 -29
-15 -34 -13 -104 42 -53 42 -64 56 -60 74 5 18 0 22 -33 27 -21 4 -51 10 -68
13 -26 6 -28 5 -17 -8z"/>
<path d="M1871 388 c-1 -20 3 -39 8 -42 5 -3 17 -38 26 -76 10 -39 19 -69 21
-67 5 5 -16 129 -24 141 -4 6 -12 27 -18 46 l-12 35 -1 -37z"/>
<path d="M1155 103 c-137 -11 -130 -28 15 -36 52 -3 84 -3 71 0 -13 2 -26 13
-28 24 -3 10 -8 18 -12 17 -3 -1 -24 -3 -46 -5z"/>
<path d="M1945 100 c-11 -5 -32 -9 -47 -9 -16 -1 -28 -5 -28 -11 0 -6 27 -10
60 -10 53 0 60 2 60 20 0 21 -12 24 -45 10z"/>
</g>
</svg>
