<?xml version="1.0" standalone="no"?>
<!DOCTYPE svg PUBLIC "-//W3C//DTD SVG 20010904//EN"
 "http://www.w3.org/TR/2001/REC-SVG-20010904/DTD/svg10.dtd">
<svg version="1.0" xmlns="http://www.w3.org/2000/svg"
 width="500.000000pt" height="500.000000pt" viewBox="0 0 500.000000 500.000000"
 preserveAspectRatio="xMidYMid meet">
<metadata>
Created by potrace 1.16, written by Peter Selinger 2001-2019
</metadata>
<g transform="translate(0.000000,500.000000) scale(0.100000,-0.100000)"
fill="#00f6ff" stroke="none">
<path d="M1091 4329 c-25 -3 -47 -11 -49 -17 -2 -7 -16 -12 -31 -12 -30 0 -71
-25 -71 -43 0 -7 -13 -18 -30 -25 -18 -8 -30 -21 -30 -33 0 -10 -4 -19 -10
-19 -22 0 -50 -41 -50 -74 0 -19 -5 -38 -10 -41 -6 -4 -10 -27 -8 -53 1 -28
-3 -47 -10 -50 -7 -2 -12 -23 -12 -49 0 -36 4 -46 20 -50 11 -3 20 -11 20 -18
0 -17 33 -45 53 -45 9 0 27 -11 41 -25 14 -14 33 -25 44 -25 10 0 23 -5 30
-12 8 -8 15 -8 27 2 9 8 37 12 69 11 48 -1 57 2 75 25 18 23 20 36 16 93 -17
218 -10 274 35 278 14 2 44 5 68 9 40 6 43 5 56 -27 12 -30 12 -35 -3 -46 -15
-11 -15 -12 2 -13 12 0 17 -8 17 -30 0 -16 -4 -30 -9 -30 -5 0 -7 -35 -4 -80
l6 -81 -27 11 c-42 16 -53 11 -27 -10 12 -11 27 -17 32 -14 15 9 10 -9 -11
-43 -18 -29 -25 -33 -65 -33 -41 0 -45 -2 -45 -25 0 -14 6 -25 13 -26 41 -4
75 6 98 27 14 13 30 24 36 24 18 0 53 50 53 75 0 12 7 29 16 36 12 10 15 25
11 56 -2 24 -1 46 4 49 17 10 9 70 -11 92 -11 12 -20 32 -20 46 0 31 -55 142
-86 172 -12 13 -33 24 -44 24 -12 0 -34 7 -51 15 -23 12 -34 13 -50 4 -12 -6
-24 -7 -28 -2 -3 5 -26 6 -50 2z"/>
<path d="M1901 3524 c-12 -15 -21 -32 -21 -39 0 -7 25 -29 56 -49 l56 -38 60
27 c33 15 62 24 66 20 4 -3 -11 -22 -31 -42 l-38 -35 51 -35 c28 -19 48 -38
45 -44 -4 -5 -2 -8 4 -7 6 2 114 -64 240 -147 161 -105 228 -154 225 -165 -3
-9 3 -7 18 7 30 27 82 53 107 53 11 0 23 4 26 10 3 5 -162 121 -367 257 -354
235 -376 248 -425 250 -45 3 -54 0 -72 -23z"/>
<path d="M1920 3185 l-105 -105 -89 100 c-50 55 -96 100 -103 100 -7 0 -39
-37 -72 -82 l-60 -81 84 -89 c47 -49 85 -93 85 -98 0 -5 -39 -51 -87 -102 -49
-51 -99 -105 -112 -120 l-24 -27 88 -40 c101 -47 117 -49 138 -18 15 20 16 7
18 -183 2 -113 4 -177 6 -142 l4 62 112 0 c156 0 157 -1 157 -136 l0 -104 565
0 565 0 0 295 0 295 -453 0 c-441 0 -454 1 -472 20 -18 20 -17 20 198 20 l217
0 0 39 c0 45 -8 73 -20 66 -4 -2 -79 -5 -166 -6 -87 0 -193 -6 -234 -13 -85
-15 -83 -16 -149 57 l-44 47 102 96 101 96 -22 31 c-42 61 -100 127 -111 127
-7 0 -59 -47 -117 -105z m176 -18 l28 -38 -99 -99 -99 -100 52 -53 c28 -29 52
-57 52 -63 0 -5 -35 -15 -77 -22 -78 -11 -78 -11 -101 15 -20 22 -26 24 -45
14 -12 -7 -39 -35 -61 -62 -23 -31 -44 -48 -52 -45 -9 3 -14 -1 -14 -12 0 -9
-12 -30 -26 -46 l-25 -28 -62 27 c-34 15 -65 31 -70 34 -4 4 40 60 98 124 58
65 105 120 105 123 0 4 -38 47 -85 96 -95 99 -94 93 -28 167 l39 44 89 -102
c49 -55 92 -101 96 -101 3 0 53 49 110 108 l104 108 22 -26 c12 -14 35 -42 49
-63z m795 -787 l0 -135 -158 0 -158 0 -3 138 -3 137 161 -2 161 -3 0 -135z"/>
<path d="M3530 3194 c0 -15 53 -180 61 -190 5 -6 7 -13 4 -16 -8 -8 34 -126
72 -203 40 -81 120 -190 190 -256 l48 -46 0 68 c0 38 -3 69 -7 69 -4 0 -5 6
-2 14 8 21 -24 133 -62 214 -47 103 -110 187 -205 276 -75 70 -99 86 -99 70z"/>
<path d="M4268 2685 c-110 -86 -203 -220 -234 -340 -15 -55 -18 -163 -6 -182
12 -18 103 38 147 89 39 48 105 172 105 199 0 10 4 20 8 23 5 3 9 19 10 36 0
17 5 37 10 43 5 7 10 34 11 61 2 27 7 60 12 73 21 56 10 56 -63 -2z"/>
<path d="M802 2581 c-77 -165 -70 -293 32 -651 98 -341 96 -327 82 -535 -9
-144 -1 -121 -128 -343 l-59 -103 22 -35 c11 -19 41 -48 66 -66 l46 -31 21 29
c11 16 35 44 52 63 l30 34 20 -114 19 -114 35 -3 c18 -2 53 2 76 8 40 12 43
15 48 54 13 100 36 358 36 401 0 58 7 71 91 171 96 115 154 201 194 288 53
113 50 187 -20 531 -58 282 -89 411 -106 431 -7 9 -21 9 -52 2 -23 -6 -100
-11 -172 -11 -120 -1 -136 1 -216 29 l-86 31 -31 -66z"/>
<path d="M3606 793 c-10 -115 -21 -230 -24 -258 -2 -27 -7 -51 -11 -53 -3 -1
-5 -22 -3 -47 5 -52 32 -66 32 -16 0 17 5 33 10 36 6 3 7 17 4 30 -3 13 -1 73
6 132 13 122 15 144 25 263 l7 85 318 0 c311 0 317 0 318 -20 0 -11 10 -123
22 -248 16 -167 19 -231 11 -241 -8 -10 -7 -17 4 -26 8 -7 15 -19 15 -27 0 -8
5 -13 12 -11 14 5 30 56 18 60 -4 2 -17 111 -29 243 -12 132 -24 251 -27 265
l-4 25 -308 1 c-169 0 -323 3 -342 7 l-35 7 -19 -207z"/>
<path d="M535 829 c-39 -28 -70 -58 -70 -67 0 -10 5 -16 10 -15 6 1 27 4 49 8
34 7 38 6 33 -11 -3 -11 -8 -50 -12 -88 -6 -61 -4 -77 21 -140 30 -75 38 -86
67 -86 19 0 40 40 50 96 5 26 2 33 -13 37 -10 2 -27 20 -37 38 -25 47 -25 214
0 252 17 27 17 27 -5 27 -13 0 -55 -23 -93 -51z"/>
<path d="M964 606 c-3 -12 -1 -47 5 -77 5 -30 6 -58 2 -62 -12 -13 0 -57 15
-57 8 0 23 9 34 20 l21 21 32 -23 c30 -21 41 -23 161 -21 82 1 132 6 136 13
11 18 -1 60 -17 60 -8 0 -34 12 -59 26 -30 18 -48 23 -57 16 -22 -17 -79 -22
-119 -11 -42 11 -128 82 -128 105 0 23 -19 16 -26 -10z"/>
<path d="M1680 466 l0 -44 53 -5 c65 -6 1210 -6 1293 0 57 4 62 7 67 30 2 14
2 34 0 44 -5 18 -26 19 -709 19 l-704 0 0 -44z"/>
</g>
</svg>
